<?xml version="1.0" encoding="utf-8" ?><svg xmlns="http://www.w3.org/2000/svg" xmlns:xlink="http://www.w3.org/1999/xlink" width="500" height="500" viewBox="0 0 500 500"><defs><linearGradient id="gradient_0" gradientUnits="userSpaceOnUse" x1="376.41159" y1="268.43353" x2="211.25256" y2="263.29236"><stop offset="0" stop-color="#FF9F39"/><stop offset="1" stop-color="#CB358F"/></linearGradient></defs><path fill="url(#gradient_0)" d="M242.625 241.473C245.153 239.582 257.572 230.817 259.688 230.622C265.622 230.076 275.231 230.452 281.425 230.367C304.227 230.186 327.03 230.151 349.832 230.262C358.752 230.261 368.846 230.529 377.661 230.233C378.34 231.257 377.961 241.766 377.969 243.801L374.763 243.8C371.634 243.771 365.623 244.076 362.984 243.79C363.061 248.225 363.108 252.66 363.125 257.096C363.133 259.371 362.975 262.364 363.224 264.544C360.503 264.611 357.728 264.677 355.009 264.681C349.328 264.689 337.979 263.654 333.68 267.966C332.313 269.345 331.564 271.218 331.603 273.159C331.675 275.606 333.018 277.573 334.784 279.169C338.537 282.562 343.871 282.021 348.554 281.589C348.448 278.887 348.735 275.617 350.7 273.742C357.383 267.365 368.422 272.806 368.082 281.932C367.959 285.225 366.464 287.277 364.667 289.655C366.681 293.446 368.789 298.16 370.854 301.743C368.957 302.283 367.601 302.952 365.77 303.618C362.758 304.705 359.731 305.749 356.689 306.749C355.026 302.863 352.877 297.861 351.667 293.805C339.501 297.924 321.879 293.307 317.574 280.029C313.999 269.006 318.473 256.436 330.122 252.911C336.587 250.954 341.451 250.769 348.13 251.026C348 248.592 347.955 246.154 347.994 243.717C337.586 243.866 326.998 243.813 316.58 243.812C312.355 243.812 305.724 244.079 301.819 243.846C302.08 246.163 301.944 249.363 301.916 251.778C301.854 256.186 301.814 260.594 301.797 265.002L301.905 291.019C301.906 294.531 302.058 298.817 301.905 302.258C296.721 302.259 291.38 302.222 286.203 302.437C285.811 296.126 286.01 288.23 286.012 281.789L285.986 243.937C279.365 243.73 274.144 243.81 267.535 244.021C267.745 246.24 267.497 248.356 267.491 250.57C267.45 264.399 267.476 278.229 267.362 292.059C267.333 295.511 267.254 298.995 267.288 302.444L251.844 302.493C251.809 298.892 251.592 292.587 251.969 289.238C240.63 296.857 223.034 295.885 214.553 284.471C214.21 284.041 213.896 283.588 213.613 283.115C210.459 277.905 210.372 271.728 211.73 265.963C215.146 255.326 223.035 251.394 233.847 250.619C236.738 250.411 245.426 250.309 247.572 252.225C248.458 253.017 247.946 263.396 247.841 265.13C241.685 263.438 234.799 261.708 229.22 266.184C227.542 267.53 226.503 269.515 226.353 271.66C225.946 277.265 231.463 280.423 236.419 280.581C242.91 280.788 247.227 277.838 251.795 273.567L251.82 243.714C248.872 243.914 243.307 243.749 240.118 243.775C231.611 243.859 223.103 243.86 214.595 243.777L213.541 243.128C213.849 242.679 213.895 242.69 214.344 242.38L214.471 241.547C214.494 241.571 213.577 240.624 213.71 240.792C212.623 239.42 214.152 235.536 213.206 233.845C212.531 232.636 212.337 232.584 212.382 231.461C213.291 230.947 213.419 230.889 214.407 230.549C223.582 230.156 233.811 230.294 243.072 230.247C242.86 233.842 243.282 238.02 242.625 241.473Z"/><path fill="#BB3898" d="M211.73 265.963C211.809 266.875 211.862 267.661 211.803 268.583C211.561 272.392 213.093 276.086 213.927 279.745C214.305 281.404 215.24 282.841 214.553 284.471C214.21 284.041 213.896 283.588 213.613 283.115C210.459 277.905 210.372 271.728 211.73 265.963Z"/><path fill="#FAA138" d="M377.661 230.233C378.34 231.257 377.961 241.766 377.969 243.801L374.763 243.8L373.995 243.413C374.177 243.358 374.36 243.303 374.542 243.249L374.807 243.157C376.302 242.651 376.499 242.303 377.5 241.124C377.558 238.275 376.947 232.608 377.661 230.233Z"/><defs><linearGradient id="gradient_1" gradientUnits="userSpaceOnUse" x1="121.8216" y1="267.72775" x2="214.76489" y2="265.77658"><stop offset="0" stop-color="#FF1D74"/><stop offset="1" stop-color="#B63C9E"/></linearGradient></defs><path fill="url(#gradient_1)" d="M120.767 230.424C125.005 230.76 131.306 230.528 135.651 230.494L160.015 230.297C163.662 230.254 167.428 230.51 171.14 230.487C185.522 230.401 200.028 230.367 214.407 230.549C213.419 230.889 213.291 230.947 212.382 231.461C212.337 232.584 212.531 232.636 213.206 233.845C214.152 235.536 212.623 239.42 213.71 240.792C213.577 240.624 214.494 241.571 214.471 241.547L214.344 242.38C213.895 242.69 213.849 242.679 213.541 243.128L214.595 243.777C211.793 243.849 208.705 243.761 205.852 243.798C203.087 243.833 198.979 244.039 196.386 243.725C196.543 247.374 196.295 252.936 196.29 256.76L196.315 283.725C196.294 289.693 196.112 296.456 196.324 302.363C191.716 302.161 185.384 302.332 180.789 302.496C180.621 298.325 180.704 293.96 180.689 289.766C180.674 285.729 180.519 281.297 180.824 277.304C178.862 277.546 176.275 277.293 174.236 277.342C169.212 277.464 163.703 277.256 158.729 277.73C158.46 274.807 158.515 273.704 158.906 270.789C155.682 274.923 151.35 275.467 150.462 276.715C151.1 278.38 164.777 292.705 166.855 295.362C164.494 297.49 158.041 303.273 155.585 304.89C152.352 301.835 146.319 294.021 143.268 290.389C136.925 282.84 130.526 275.035 124.37 267.328C127.079 264.547 133.167 259.349 136.35 256.916C137.707 258.421 141.87 263.089 143.511 262.949C149.567 262.434 147.97 247.191 147.903 243.933C139.425 244.033 129.191 243.462 120.843 244.017C120.595 240.222 120.764 234.392 120.767 230.424ZM162.294 264.15C168.104 264.067 174.044 264.153 179.813 264.027L180.5 264.088C181.03 263.366 180.715 246.313 180.694 243.7C178.319 244.074 166.497 243.89 163.617 243.785C164.536 248.34 164.431 260.124 162.294 264.15Z"/><defs><linearGradient id="gradient_2" gradientUnits="userSpaceOnUse" x1="295.69919" y1="200.52792" x2="240.55972" y2="212.76216"><stop offset="0" stop-color="#F6963C"/><stop offset="1" stop-color="#F1535E"/></linearGradient></defs><path fill="url(#gradient_2)" d="M248.033 188.828C255.706 188.288 264.112 189.001 271.884 188.756C276.918 189.079 283.108 188.142 288.046 188.997C296.058 190.385 295.993 199.437 295.528 205.514C295.103 211.065 296.943 217.202 292.727 221.496C289.192 225.097 283.249 224.029 278.563 223.939C276.177 223.976 262.7 223.65 261.48 224.22C258.407 225.656 250.779 232.167 246.736 234.409L246.427 234.577L246.569 223.932C244.636 222.981 241.791 220.382 241.464 218.223C240.428 211.373 241.07 203.445 241.115 196.524C241.141 192.527 244.487 189.753 248.033 188.828ZM248.25 193.023C246.848 194.014 245.608 194.735 245.286 196.559C244.751 199.582 244.631 216.022 246.186 218.03C247.216 219.361 249.475 219.811 251.012 220.282C251.068 222.463 251.099 224.013 250.931 226.175C263.317 217.68 261.207 220.071 276.026 219.909C279.868 219.885 283.888 220.183 287.654 219.666C288.639 219.421 290.351 217.961 290.492 216.959C291.35 210.836 291.084 204.369 291.154 198.168C291.227 191.701 282.545 192.719 278.446 192.709L260.944 192.642C259.142 192.624 255.778 192.769 254.192 192.593C252.426 192.72 249.934 192.805 248.25 193.023Z"/><path fill="#F3794B" d="M252.898 199.806C254.041 199.732 259.273 199.681 260.147 199.796C263.809 200.279 281.254 199.026 283.562 200.263C284.428 201.329 284.1 203.002 283.2 203.957C277.953 204.089 272.478 204.12 267.239 203.984C263.995 203.899 255.821 204.325 252.977 203.457C251.903 202.344 252.059 201.029 252.898 199.806Z"/><path fill="#F3794B" d="M261.674 208.111C263.807 208.08 271.756 207.653 273.32 208.858C276.504 213.903 267.594 212.607 265.026 212.517C261.535 212.377 256.562 213.091 253.224 212.192C251.31 211.676 252.372 209.477 253.052 208.259C255.927 208.236 258.801 208.186 261.674 208.111Z"/><path fill="#BB3898" d="M188.101 203.793C189.502 203.692 190.906 203.925 192.2 204.472C195.985 206.073 198.179 210.059 197.507 214.113C196.835 218.168 193.472 221.233 189.373 221.526C184.476 221.877 180.221 218.192 179.87 213.295C179.519 208.398 183.204 204.144 188.101 203.793Z"/></svg>